<svg id="visual" viewBox="0 0 960 300" width="960" height="300" xmlns="http://www.w3.org/2000/svg" xmlns:xlink="http://www.w3.org/1999/xlink" version="1.1"><rect x="0" y="0" width="960" height="300" fill="#001220"></rect><path d="M0 93L22.8 99.3C45.7 105.7 91.3 118.3 137 122.8C182.7 127.3 228.3 123.7 274 124.3C319.7 125 365.3 130 411.2 136.2C457 142.3 503 149.7 548.8 150.2C594.7 150.7 640.3 144.3 686 137.7C731.7 131 777.3 124 823 115.7C868.7 107.3 914.3 97.7 937.2 92.8L960 88L960 0L937.2 0C914.3 0 868.7 0 823 0C777.3 0 731.7 0 686 0C640.3 0 594.7 0 548.8 0C503 0 457 0 411.2 0C365.3 0 319.7 0 274 0C228.3 0 182.7 0 137 0C91.3 0 45.7 0 22.8 0L0 0Z" fill="#f7770f"></path><path d="M0 133L22.8 129.7C45.7 126.3 91.3 119.7 137 113C182.7 106.3 228.3 99.7 274 91.3C319.7 83 365.3 73 411.2 78C457 83 503 103 548.8 109.5C594.7 116 640.3 109 686 101C731.7 93 777.3 84 823 84.8C868.7 85.7 914.3 96.3 937.2 101.7L960 107L960 0L937.2 0C914.3 0 868.7 0 823 0C777.3 0 731.7 0 686 0C640.3 0 594.7 0 548.8 0C503 0 457 0 411.2 0C365.3 0 319.7 0 274 0C228.3 0 182.7 0 137 0C91.3 0 45.7 0 22.8 0L0 0Z" fill="#f98920"></path><path d="M0 51L22.8 52.2C45.7 53.3 91.3 55.7 137 58.5C182.7 61.3 228.3 64.7 274 68C319.7 71.3 365.3 74.7 411.2 80.2C457 85.7 503 93.3 548.8 97.3C594.7 101.3 640.3 101.7 686 93.8C731.7 86 777.3 70 823 66.7C868.7 63.3 914.3 72.7 937.2 77.3L960 82L960 0L937.2 0C914.3 0 868.7 0 823 0C777.3 0 731.7 0 686 0C640.3 0 594.7 0 548.8 0C503 0 457 0 411.2 0C365.3 0 319.7 0 274 0C228.3 0 182.7 0 137 0C91.3 0 45.7 0 22.8 0L0 0Z" fill="#fa9a30"></path><path d="M0 37L22.8 38.5C45.7 40 91.3 43 137 41.2C182.7 39.3 228.3 32.7 274 32.2C319.7 31.7 365.3 37.3 411.2 40.2C457 43 503 43 548.8 41.7C594.7 40.3 640.3 37.7 686 43C731.7 48.3 777.3 61.7 823 63.3C868.7 65 914.3 55 937.2 50L960 45L960 0L937.2 0C914.3 0 868.7 0 823 0C777.3 0 731.7 0 686 0C640.3 0 594.7 0 548.8 0C503 0 457 0 411.2 0C365.3 0 319.7 0 274 0C228.3 0 182.7 0 137 0C91.3 0 45.7 0 22.8 0L0 0Z" fill="#fbaa41"></path><path d="M0 12L22.8 15.7C45.7 19.3 91.3 26.7 137 29.5C182.7 32.3 228.3 30.7 274 27.8C319.7 25 365.3 21 411.2 23.3C457 25.7 503 34.3 548.8 39.7C594.7 45 640.3 47 686 42.5C731.7 38 777.3 27 823 22.5C868.7 18 914.3 20 937.2 21L960 22L960 0L937.2 0C914.3 0 868.7 0 823 0C777.3 0 731.7 0 686 0C640.3 0 594.7 0 548.8 0C503 0 457 0 411.2 0C365.3 0 319.7 0 274 0C228.3 0 182.7 0 137 0C91.3 0 45.7 0 22.8 0L0 0Z" fill="#fdb952"></path></svg>