<svg id="visual" viewBox="0 0 960 300" width="960" height="300" xmlns="http://www.w3.org/2000/svg" xmlns:xlink="http://www.w3.org/1999/xlink" version="1.1"><rect x="0" y="0" width="960" height="300" fill="#001220"></rect><path d="M0 205L22.8 198.7C45.7 192.3 91.3 179.7 137 175.2C182.7 170.7 228.3 174.3 274 173.7C319.7 173 365.3 168 411.2 161.8C457 155.7 503 148.3 548.8 147.8C594.7 147.3 640.3 153.7 686 160.3C731.7 167 777.3 174 823 182.3C868.7 190.7 914.3 200.3 937.2 205.2L960 210L960 301L937.2 301C914.3 301 868.7 301 823 301C777.3 301 731.7 301 686 301C640.3 301 594.7 301 548.8 301C503 301 457 301 411.2 301C365.3 301 319.7 301 274 301C228.3 301 182.7 301 137 301C91.3 301 45.7 301 22.8 301L0 301Z" fill="#f7770f"></path><path d="M0 165L22.8 168.3C45.7 171.7 91.3 178.3 137 185C182.7 191.7 228.3 198.3 274 206.7C319.7 215 365.3 225 411.2 220C457 215 503 195 548.8 188.5C594.7 182 640.3 189 686 197C731.7 205 777.3 214 823 213.2C868.7 212.3 914.3 201.7 937.2 196.3L960 191L960 301L937.2 301C914.3 301 868.7 301 823 301C777.3 301 731.7 301 686 301C640.3 301 594.7 301 548.8 301C503 301 457 301 411.2 301C365.3 301 319.7 301 274 301C228.3 301 182.7 301 137 301C91.3 301 45.7 301 22.8 301L0 301Z" fill="#f98920"></path><path d="M0 247L22.8 245.8C45.7 244.7 91.3 242.3 137 239.5C182.7 236.7 228.3 233.3 274 230C319.7 226.7 365.3 223.3 411.2 217.8C457 212.3 503 204.7 548.8 200.7C594.7 196.7 640.3 196.3 686 204.2C731.7 212 777.3 228 823 231.3C868.7 234.7 914.3 225.3 937.2 220.7L960 216L960 301L937.2 301C914.3 301 868.7 301 823 301C777.3 301 731.7 301 686 301C640.3 301 594.7 301 548.8 301C503 301 457 301 411.2 301C365.3 301 319.7 301 274 301C228.3 301 182.7 301 137 301C91.3 301 45.7 301 22.8 301L0 301Z" fill="#fa9a30"></path><path d="M0 261L22.8 259.5C45.7 258 91.3 255 137 256.8C182.7 258.7 228.3 265.3 274 265.8C319.7 266.3 365.3 260.7 411.2 257.8C457 255 503 255 548.8 256.3C594.7 257.7 640.3 260.3 686 255C731.7 249.7 777.3 236.3 823 234.7C868.7 233 914.3 243 937.2 248L960 253L960 301L937.2 301C914.3 301 868.7 301 823 301C777.3 301 731.7 301 686 301C640.3 301 594.7 301 548.8 301C503 301 457 301 411.2 301C365.3 301 319.7 301 274 301C228.3 301 182.7 301 137 301C91.3 301 45.7 301 22.8 301L0 301Z" fill="#fbaa41"></path><path d="M0 286L22.8 282.3C45.7 278.7 91.3 271.3 137 268.5C182.7 265.7 228.3 267.3 274 270.2C319.7 273 365.3 277 411.2 274.7C457 272.3 503 263.7 548.8 258.3C594.7 253 640.3 251 686 255.5C731.7 260 777.3 271 823 275.5C868.7 280 914.3 278 937.2 277L960 276L960 301L937.2 301C914.3 301 868.7 301 823 301C777.3 301 731.7 301 686 301C640.3 301 594.7 301 548.8 301C503 301 457 301 411.2 301C365.3 301 319.7 301 274 301C228.3 301 182.7 301 137 301C91.3 301 45.7 301 22.8 301L0 301Z" fill="#fdb952"></path></svg>